<?xml version="1.0" encoding="utf-8"?>
<!-- Generator: Adobe Illustrator 22.0.1, SVG Export Plug-In . SVG Version: 6.00 Build 0)  -->
<svg version="1.1" id="Layer_1" xmlns="http://www.w3.org/2000/svg" xmlns:xlink="http://www.w3.org/1999/xlink" x="0px" y="0px"
	 viewBox="0 0 298.4 263.9" style="enable-background:new 0 0 298.4 263.9;" xml:space="preserve">
<style type="text/css">
	.st0{fill:none;stroke:#FFFFFF;stroke-miterlimit:10;}
	.st1{fill:#221F1F;stroke:#FFFFFF;stroke-miterlimit:10;}
	.st2{fill:#FFFFFF;stroke:#FFFFFF;stroke-miterlimit:10;}
	.st3{fill:none;stroke:#FFFFFF;stroke-width:0.5;stroke-miterlimit:10;}
	.st4{fill:none;stroke:#FFFFFF;stroke-linecap:round;stroke-linejoin:round;stroke-miterlimit:10;}
	.st5{fill:none;stroke:#FFFFFF;stroke-width:0.5;stroke-linecap:round;stroke-linejoin:round;stroke-miterlimit:10;}
	.st6{fill:none;stroke:#FFFFFF;stroke-width:0.5058;stroke-miterlimit:10;}
	.st7{fill:none;stroke:#FFFFFF;stroke-width:1.686;}
</style>
<path class="st0" d="M91.5,242.2c24.5,16.3,79.2,8.1,129.2-28.6c78.5-57.6,73.2-106.9,56.7-133.5c-2.1-3.3-4.8-6.1-8.2-8.4
	c-0.4-0.6-0.9-1.2-1.4-1.8c-3.5-11.8-12.6-17.9-23.9-17.4c-7,0.3-14,3.1-19.8,7.6c-0.1,0-0.1,0-0.2-0.1c0,0-13.7-5.5-19.1-11.5
	c-5.5-6.1-23.1-26.4-23.1-26.4c-8.2-9.7-21-17.3-36.4-10l-32.8,16.4c-9.6,5.4-14.5,17.7-12.7,27.1c0,0.1,6.6,35.5,8.2,42.5
	c1.5,7,3.3,17.3-12.1,36.7c-11.3,14.2-17.6,23.7-20.5,28.3l-20.2-6.7c-13.4-4.6-28.5-4.9-38.3,10.9l-2.1,5.6
	c-3.6,9.7,1.5,18.4,10.6,24.4C25.1,197.4,88.1,240.8,91.5,242.2"/>
<path class="st0" d="M16.4,170.6c2.3-1.4,5.1-2,8.8-1.1c13.4,3.3,8.3,12,21.4,26.5c0,0,7.3,6.5,16,10.5c8.7,4,38.5,17.8,38.5,17.8
	s16,8,36.7,1.8c20.7-6.2,78.8-30.1,86.8-58.8c8-28.7,3.6-54.1,3.6-54.1s-1-9.2-2.7-14.9c-1.6-5.7-6.4-19,7.2-32.8
	c13.7-13.9,24.2-11.9,30.9-4.3"/>
<path class="st0" d="M267.7,70c0,0,12.8,29,11.4,14.2"/>
<path class="st1" d="M89.2,167.4c-7.1-0.2-13.9-3.5-14.3-3.7l-0.2-0.9c0.1,0.1,15.7,7.9,23.7,1.5C98.4,164.3,98.1,167.3,89.2,167.4"
	/>
<path class="st2" d="M189.3,150.3l1.8-1.6c2.5-2,3.7-3.6,5-6.7c2.2-5.1,2.2-7.2,2.3-10.4c0-0.7,0-1.5,0.1-2.3l1.1,0.1
	c-0.1,0.8-0.1,1.6-0.1,2.3c-0.1,3.1-0.4,6.6-2.7,11.2C195.3,146,192.8,148.6,189.3,150.3"/>
<path class="st0" d="M223.7,60.6c0,0-14.3,13.4-20.8,30.2c-1.6,4.1-3.5,11.4-3.3,23.6c0.1,5.1-0.1,10.2-0.5,15.2"/>
<path class="st0" d="M172.3,180.1c0.6,1-2.2,3.9-6.3,6.4c-4.1,2.5-7.9,3.7-8.5,2.7c-0.6-1,2.2-3.8,6.3-6.4
	C167.8,180.3,171.7,179.1,172.3,180.1z"/>
<path class="st3" d="M185.9,156c2.9,6.5-9.3,24.9-23.3,32.3c-14,7.3-24.2,1.4-26.1-4.4c-1.6-4.8,7.8-12.7,21.3-20.9
	C173.1,153.7,184.3,152.7,185.9,156z"/>
<path class="st3" d="M72.3,163.6c-0.2,0.6-5.2-0.6-11.2-2.6c-6-2-10.7-4.1-10.5-4.7c0.2-0.6,5.2,0.6,11.2,2.6
	C67.8,160.9,72.5,163,72.3,163.6z"/>
<path class="st0" d="M25.6,183.6c0,0-1.6,0,0.5,2.9c1.5,2.1,5.8,7.1,9.8,10.6"/>
<path class="st3" d="M16.6,188.6c0,0-2.1-5,2.5-6.7c4.7-1.6,8.3,2.4,12.1,8.2c3.8,5.8,9.7,14.2,9.7,14.2s3.9,4.6-1.6,2.6"/>
<path class="st3" d="M87.9,191.6c-2.7,4.5-14.3,5.7-21.6,1.5c-7.3-4.2-7.6-12-5.7-15.6c2.4-4.6,7-7.5,14.3-3.2
	C83.9,179.7,89.7,188.7,87.9,191.6z"/>
<path class="st0" d="M77.5,181c1.8,4.6-0.2,9.3-4.4,10.6c-4.2,1.2-9-1.4-10.8-6c-1.8-4.6,0.2-9.3,4.4-10.6
	C70.9,173.7,75.7,176.4,77.5,181z"/>
<path class="st3" d="M125.9,125.4c3.9,2.3,2.1,13.7-10.6,25.8c-10.4,9.9-20.3,13.8-28.6,10.6c-4.2-1.6,2-13.3,12.7-22.8
	C110.1,129.6,122,123,125.9,125.4z"/>
<path class="st0" d="M106.7,148.3c1.1,2.3-1.5,5.7-5.6,7.7c-4.2,1.9-8.4,1.7-9.5-0.6c-1.1-2.3,1.4-5.7,5.6-7.7
	C101.4,145.8,105.7,146,106.7,148.3z"/>
<path class="st0" d="M108.8,69.3c-0.2,0.2-0.3,0.4-0.6,0.5c-1.6,0.6-4.2-2.5-5.9-7c-1.7-4.5-1.8-8.6-0.3-9.2c0.7-0.3,1.5,0.2,2.4,1"
	/>
<path class="st4" d="M187.6,127.5c-0.4,0.7-1.7,2.4-2.7,4c-1.3,2-3,3.4-4.4,4.2c-0.9,0.5-40.6,20.2-40.6,20.2c-1,0.4-2,0.9-2.7,0.6
	c-1.8-0.8-2.9-1.3-3.4-1.6l-0.8-1.4c-0.2-1.2,0.3-1.9,0.2-1.9l19.4-29.2c1.1-1.6,2.2-2.9,3.6-3.7l8.5-4.5c0.2-0.1,0.7-0.2,1.2,0
	l21.2,10.9l0.6,1.3C187.7,126.6,187.8,127.2,187.6,127.5z"/>
<path class="st5" d="M186.6,125.2c0,0,0.1,0.6-0.1,1c-0.4,0.7-1.7,2.4-2.7,4c-1.3,2-3,3.4-4.4,4.2c-0.9,0.5-38.4,19.4-38.4,19.4
	c-2.5,1.2-3.4,0.8-6.2-0.5"/>
<path class="st4" d="M175.3,127.5c0,3-4.2,7.8-13.5,12.5c-10.7,5.3-17.2,6.7-17.6,4.5c-0.9-4.9,9.5-18,14.9-20.7
	C169.3,118.7,175.3,125.4,175.3,127.5z"/>
<path class="st5" d="M145.6,145.5c-0.9-4.9,8.3-17.5,13.7-20.2c10.2-5.1,16.2,1.4,15.4,4.4"/>
<path class="st3" d="M99.8,47.3c3.4,3,6.8,11.1,8.7,20.5c2.3,11.6,1.2,21.7-2.3,23.7"/>
<path class="st3" d="M184.7,26.3c7.8,8.3,13.2,17.6,9.7,20.8c-3.5,3.2-15.6-0.9-23.2-9.4c-9.1-10.1-10.5-19.8-6.4-22.3
	C172.3,10.8,176.9,18,184.7,26.3z"/>
<path class="st0" d="M180.6,22.9c2.7,4,2.5,8.9-0.5,10.9c-3,2-7.6,0.4-10.3-3.6c-2.7-4-2.5-8.9,0.5-10.9
	C173.3,17.3,177.9,18.9,180.6,22.9z"/>
<path class="st3" d="M199.9,104.9c-3.4-2.1-5.4-5.3-5.4-9c0-5.2,5.7-11.2,12.5-13.9"/>
<path class="st3" d="M214.3,115.9c-2.5-7.7-7.9-13-10.9-12.1c-4.5,1.3-2.1,16.2-1.9,18.4c0.6,6.2,3.2,11.1,5.9,10.7
	C212.1,132.2,215.9,120.6,214.3,115.9z"/>
<path class="st3" d="M211.9,112.5c1.9,4.5,1.5,8.9-0.8,9.9c-2.3,1-5.7-1.9-7.6-6.3c-1.9-4.5-1.5-8.9,0.8-9.9
	C206.6,105.2,210,108,211.9,112.5z"/>
<path class="st3" d="M261,88.2c-2.9,10.5-10.3,17.3-16.7,15.8c-4.9-1.1-9.8-12.9-6.9-23.4c2.9-10.5,13.9-16.5,20.2-14.8
	C264,67.5,263.9,77.7,261,88.2z"/>
<path class="st0" d="M250.2,82.4c0.7,4.8-1,9-3.9,9.4c-2.9,0.4-5.8-3.1-6.5-7.9c-0.7-4.8,1-9,3.9-9.4
	C246.6,74,249.5,77.6,250.2,82.4z"/>
<path class="st3" d="M285.8,122.6c0,10.9-2.1,19.8-4.6,19.8c-2.5,0-4.6-8.9-4.6-19.8c0-10.9,2.1-19.8,4.6-19.8
	C283.8,102.8,285.8,111.7,285.8,122.6z"/>
<path class="st0" d="M282.1,115.3c-1,5-2.9,8.9-4.3,8.6c-1.3-0.3-1.1-4.1-0.5-9.6c0.6-5.1,1.8-8.8,3.1-8.5
	C281.7,106.1,283.1,110.3,282.1,115.3z"/>
<path class="st3" d="M258.1,179.2c-4.6,7.3-11.8,11.5-14.4,10.4c-3.4-1.4-4.1-9.4-0.1-17c5.3-10.1,11.5-12.6,15.6-10.3
	C263,164.4,263.9,170.2,258.1,179.2z"/>
<path class="st0" d="M254.5,175.8c-2.5,4.1-6.3,6.4-8.5,5c-2.2-1.3-1.9-5.8,0.6-9.9c2.5-4.1,6.3-6.4,8.5-5
	C257.3,167.3,257.1,171.7,254.5,175.8z"/>
<path class="st3" d="M199.2,220c1.8,5.8-9.3,12.2-19.2,15.2c-9.9,3.1-15.4,0.6-17.2-5.2c-1.8-5.8,3.3-13.2,13.9-16.5
	C186.5,210.5,197.5,214.2,199.2,220z"/>
<path class="st0" d="M187.2,218.3c0.9,2.7-2.5,5.9-7,7.4c-4.5,1.5-8.9,0.6-9.9-2.2c-0.9-2.7,1.9-6.2,6.4-7.8
	C181.3,214.2,186.2,215.5,187.2,218.3z"/>
<path class="st6" d="M130.5,27c0.1,0.9-0.8,1.9-2,2.4c-1.2,0.5-2.2,0.1-2.3-0.7c-0.1-0.9,0.8-1.9,2-2.4
	C129.4,25.8,130.4,26.1,130.5,27z"/>
<path class="st7" d="M182.6,143.4"/>
</svg>
