<?xml version="1.0" encoding="utf-8"?>
<!-- Generator: Adobe Illustrator 22.0.1, SVG Export Plug-In . SVG Version: 6.00 Build 0)  -->
<svg version="1.1" id="Handle" xmlns="http://www.w3.org/2000/svg" xmlns:xlink="http://www.w3.org/1999/xlink" x="0px" y="0px"
	 viewBox="0 0 563.3 530" style="enable-background:new 0 0 563.3 530;" xml:space="preserve">
<style type="text/css">
	.st0{fill:#FFFFFF;}
	.st1{fill:#414042;stroke:#FFFFFF;stroke-width:1.269;stroke-linecap:round;stroke-linejoin:round;}
	.st2{fill:#D1D3D4;stroke:#010101;stroke-width:1.269;stroke-linecap:round;stroke-linejoin:round;}
	.st3{fill:#231F20;}
	.st4{fill:none;stroke:#F1F2F2;stroke-width:1.0363;stroke-miterlimit:10;}
	.st5{fill:none;stroke:#FFFFFF;stroke-width:1.0363;stroke-miterlimit:10;}
	.st6{fill:none;stroke:#FFFFFF;stroke-width:0.5182;stroke-miterlimit:10;}
	.st7{fill:none;stroke:#FFFFFF;stroke-width:1.0363;stroke-linecap:round;stroke-linejoin:round;stroke-miterlimit:10;}
	.st8{fill:none;stroke:#FFFFFF;stroke-width:0.5182;stroke-linecap:round;stroke-linejoin:round;stroke-miterlimit:10;}
</style>
<path class="st0" d="M285.2,338.2l37.1,39l-8.8,8.9c0,0-34.4,8.4-42.4,5.9c-8-2.6-3.8-33.2-3.8-33.2l12-19.2"/>
<path class="st1" d="M89.1,109.8c10.4-9.8,18.6-13.7,23.6-12.7c13.2,2.8,24.6,7.8,36.4,16.3c11,7.9,21.8,20.7,34.8,35.6
	c4.1,4.7,9.8,8.3,16,14.5c18.4,18,45.2,41.2,73.7,62.8c38.2,29,171.1,122.8,198.7,139.7c25.1,15.4,36.5,22.7,47.5,31
	c22.7,17.3,32.2,42,26.1,67.8"/>
<path class="st1" d="M112.7,97.2c-8.5-1.8-25.7,10.4-47.9,41.3c-22.3,30.8-28.7,51.3-24.5,59c0,0,2.3,13.1,21.1,27.1
	c18.8,14,39.7,26.5,46,29.6C130.9,265.9,260,353.6,296,380.8c33.4,25.4,78.3,61,104.3,85c21.1,19.5,31.7,29.1,42.9,37.6
	c16.7,12.7,35,17.4,52.8,13.6c6.7-1.4,13.3-4,19.4-7.8c3-1.8,10.9-11.7,17.5-20.8c6.5-9,13.5-19.7,14.3-23.2"/>
<path class="st2" d="M514.7,508.2c-0.4,0.2-0.6,0.3-0.7,0.2c-1-0.8,5.2-11.3,14.1-23.5c8.8-12.2,16.8-21.4,17.8-20.6"/>
<ellipse transform="matrix(0.4734 -0.8808 0.8808 0.4734 -78.6642 375.4292)" class="st0" cx="274.7" cy="253.5" rx="6.9" ry="8.9"/>
<ellipse transform="matrix(0.5879 -0.809 0.809 0.5879 -102.1646 376.5713)" class="st0" cx="318.5" cy="288.6" rx="19.3" ry="30.3"/>
<polygon class="st3" points="279,252.6 274.3,257.6 275.9,258.9 280.6,253.8 "/>
<polygon class="st3" points="276.4,250.5 271.7,255.6 273.3,256.8 278,251.8 "/>
<polygon class="st3" points="273.8,248.4 269.1,253.5 270.7,254.8 275.4,249.7 "/>
<ellipse transform="matrix(0.5879 -0.809 0.809 0.5879 -157.4276 463.2103)" class="st0" cx="375.9" cy="386.1" rx="7.4" ry="11.5"/>
<path class="st3" d="M35.7,155.6c6.3,29.8,52.8,63.3,116.5,72.3c99.9,14.1,131.7-26.3,138.6-58c0.9-4,0.8-8,0-12.1
	c0.1-0.8,0.2-1.6,0.2-2.3c6-11.3,3.6-22.4-5.1-30.2c-5.4-4.8-12.6-7.8-20.2-8.7c0-0.1-0.1-0.1-0.1-0.2c0,0-6.2-13.9-5.8-22.4
	c0.3-8.5,2-36.3,2-36.3c1-13.1-3-28-19.8-33.8l-36.2-11.6c-11.1-2.9-23.5,2.6-29,10.9c-0.1,0.1-20.8,31.1-24.7,37.4
	s-10,15.3-35.6,18.5c-18.7,2.3-30.2,4.8-35.7,6.1L70.7,65.6C64,52.5,53,41.2,34.3,45.9l-5.7,2.6c-9.7,4.6-12.2,14.7-9.8,25.8
	C18.8,74.3,34.2,152.1,35.7,155.6"/>
<path class="st4" d="M35.7,155.6c6.3,29.8,52.8,63.3,116.5,72.3c99.9,14.1,131.7-26.3,138.6-58c0.9-4,0.8-8,0-12.1
	c0.1-0.8,0.2-1.6,0.2-2.3c6-11.3,3.6-22.4-5.1-30.2c-5.4-4.8-12.6-7.8-20.2-8.7c0-0.1-0.1-0.1-0.1-0.2c0,0-6.2-13.9-5.8-22.4
	c0.3-8.5,2-36.3,2-36.3c1-13.1-3-28-19.8-33.8l-36.2-11.6c-11.1-2.9-23.5,2.6-29,10.9c-0.1,0.1-20.8,31.1-24.7,37.4
	s-10,15.3-35.6,18.5c-18.7,2.3-30.2,4.8-35.7,6.1L70.7,65.6C64,52.5,53,41.2,34.3,45.9l-5.7,2.6c-9.7,4.6-12.2,14.7-9.8,25.8
	C18.8,74.3,34.2,152.1,35.7,155.6"/>
<path class="st5" d="M31.8,48.1c2.7,0.6,5.2,2.3,7.3,5.6c7.6,12.1-2.5,14.9-3.3,35.2c0,0,0.7,10.1,4.2,19.4c3.6,9.3,15.7,41,15.7,41
	s6.1,17.5,25.9,27.9s80.2,34.7,106.9,19.2s41.8-37.5,41.8-37.5s5.9-7.6,8.8-13c2.9-5.4,9.1-18.7,29-19.1c20.3-0.4,26.5,8.7,26,19.2"
	/>
<path class="st5" d="M291,155.4c0,0-11.5,30.7-1.9,18.8"/>
<path class="st0" d="M88.1,98.4c-5.1-5.3-7.8-12.6-8-13.1l0.5-0.8c0.1,0.1,5.9,17.2,16.5,18.3C97.2,102.8,94.8,104.8,88.1,98.4"/>
<path class="st0" d="M174.7,158.3l2.5,0.1c3.3,0.3,5.4,0,8.6-1.3c5.4-2.2,6.9-3.8,9.2-6c0.6-0.5,1.1-1.1,1.8-1.7l0.8,0.9
	c-0.6,0.6-1.2,1.1-1.7,1.6c-2.3,2.3-5.1,4.6-10.1,6.3C182.3,159.4,178.6,159.4,174.7,158.3"/>
<path class="st5" d="M265.2,116.5c0,0-20.3-0.4-37.3,7.4c-4.2,1.9-10.9,5.9-19.5,15.2c-3.6,3.8-7.5,7.4-11.4,10.9"/>
<path class="st5" d="M140.6,168c-0.3,1.2-4.4,1.3-9.3,0.2c-4.9-1.1-8.6-3-8.3-4.1c0.3-1.2,4.4-1.3,9.3-0.2
	C137.1,164.9,140.8,166.8,140.6,168z"/>
<path class="st6" d="M168,160c-2.5,7-24.9,11.8-40.6,7.1s-19-16.5-16.2-22.2c2.3-4.8,15-3.7,30.9,0C160.3,149,169.3,156.4,168,160z"
	/>
<path class="st6" d="M78.3,83.4c-0.6,0.3-3.5-4.2-6.5-10.1c-3-5.8-5-10.8-4.4-11.1c0.6-0.3,3.4,4.2,6.4,10.1
	C76.9,78.1,78.9,83.1,78.3,83.4z"/>
<path class="st5" d="M29.2,64.4c0,0-1.2-1.2-1.7,2.5c-0.4,2.6-0.8,9.5-0.4,15"/>
<path class="st6" d="M18.9,61.6c0,0,2.1-5.3,6.7-3.1c4.6,2.1,4.4,7.8,3,14.9c-1.4,7-3.1,17.6-3.1,17.6s-0.4,6.2-3.1,0.7"/>
<path class="st6" d="M69.6,115.5c-5.2,1.4-14.8-6.1-17.1-14.6c-2.3-8.4,3-14.4,7-15.7c5.1-1.7,10.7-0.5,12.9,7.9
	C75.3,103.7,73,114.6,69.6,115.5z"/>
<path class="st5" d="M69.6,100c-2,4.7-6.9,6.8-10.9,4.7s-5.6-7.6-3.6-12.3S62,85.6,66,87.7C70,89.9,71.6,95.4,69.6,100z"/>
<path class="st6" d="M145.7,93.8c1.2,4.6-8.3,11.6-26.6,11.4c-14.8-0.2-25.1-4.4-28.9-12.9c-2-4.3,11.1-8.4,25.9-7.7
	C131,85.5,144.5,89.3,145.7,93.8z"/>
<path class="st5" d="M114.9,97c-0.9,2.5-5.2,3.2-9.7,1.6c-4.5-1.6-7.5-4.9-6.6-7.4s5.2-3.2,9.7-1.6C112.8,91.2,115.8,94.5,114.9,97z
	"/>
<path class="st5" d="M173.6,39.9c-0.3,0.1-0.5,0-0.8-0.1c-1.6-0.7-1.3-4.9,0.7-9.5s4.9-7.7,6.5-7c0.7,0.3,1,1.2,1,2.5"/>
<path class="st7" d="M190,140.1c-0.8,0.2-3,0.6-4.9,1c-2.4,0.6-4.6,0.3-6.3-0.1c-1-0.3-44.7-14.4-44.7-14.4
	c-1.1-0.4-2.1-0.8-2.4-1.5c-0.8-1.9-1.2-3-1.4-3.6l0.4-1.6c0.7-1,1.6-1.2,1.6-1.3l35.5-7.6c2-0.4,3.7-0.5,5.3-0.1l9.5,2.9
	c0.3,0.1,0.7,0.3,0.8,0.9l7.8,23.4l-0.5,1.4C190.7,139.5,190.4,140,190,140.1z"/>
<path class="st8" d="M190.9,137.6c0,0-0.4,0.6-0.8,0.7c-0.8,0.2-3,0.6-4.9,1c-2.4,0.6-4.7,0.3-6.3-0.1c-1-0.3-42.5-13.4-42.5-13.4
	c-2.7-0.9-3.1-1.9-4.2-4.8"/>
<path class="st7" d="M180.9,131.2c-2.2,2.2-8.8,2.8-19-0.5c-11.8-3.8-17.6-7.5-16.3-9.4c2.9-4.2,20-6.5,26-4.6
	C182.7,120.3,182.4,129.6,180.9,131.2z"/>
<path class="st8" d="M145.8,123c2.9-4.2,18.8-6.9,24.7-5.1c11.3,3.6,11.1,12.8,8.2,14.4"/>
<path class="st6" d="M182.9,17c0.3,4.7-3,13.2-8.4,21.5c-6.7,10.2-14.8,17-18.8,15.9"/>
<path class="st6" d="M261.1,62.9c-0.3,11.8-3,22.6-7.9,22.5c-4.9-0.1-10.9-11.9-10.4-23.7c0.6-14.1,6.6-22.3,11.4-21.2
	C263.1,42.5,261.3,51.1,261.1,62.9z"/>
<path class="st5" d="M260.5,57.4c-0.9,4.9-4.6,8.4-8.3,7.7c-3.7-0.7-5.9-5.2-5-10.2c0.9-4.9,4.6-8.4,8.3-7.7
	C259.2,48,261.4,52.5,260.5,57.4z"/>
<path class="st6" d="M215.4,132.2c-1-4-0.2-7.8,2.5-10.6c3.8-3.8,12.3-4.2,19.3-1.3"/>
<path class="st6" d="M218.2,150.8c3.7-7.6,3.6-15.3,0.7-16.8c-4.3-2.2-13.3,10.6-14.7,12.3c-4,5-5.7,10.6-3.4,12.2
	C204.7,161.3,215.9,155.4,218.2,150.8z"/>
<path class="st6" d="M218.9,146.5c-1.8,4.7-5.3,7.7-7.7,6.7s-2.9-5.5-1.1-10.2c1.8-4.7,5.3-7.7,7.7-6.7
	C220.2,137.3,220.7,141.8,218.9,146.5z"/>
<path class="st6" d="M272.9,164c-9.7,5.7-20.2,5.4-23.8-0.4c-2.8-4.4,2.1-16.7,11.9-22.3c9.7-5.7,22.3-2.2,25.7,3.7
	C290,150.9,282.6,158.4,272.9,164z"/>
<path class="st5" d="M269.1,151.9c-2.9,4.1-7.3,5.9-9.8,4.2c-2.5-1.8-2.1-6.5,0.9-10.6c2.9-4.1,7.3-5.9,9.8-4.2
	C272.4,143.1,272,147.9,269.1,151.9z"/>
<path class="st6" d="M266.4,207.6c-7.9,8.1-15.9,13.2-17.8,11.4c-1.9-1.8,3-9.9,10.9-18c7.9-8.1,15.9-13.2,17.8-11.4
	S274.3,199.4,266.4,207.6z"/>
<path class="st5" d="M268.9,199.4c-4.4,3-8.6,4.4-9.4,3.3c-0.8-1.2,2.1-3.9,6.5-7.5c4.1-3.4,7.7-5.2,8.5-4
	C275.3,192.3,273.2,196.4,268.9,199.4z"/>
<path class="st6" d="M204.8,229.5c-8.7,2.1-17.1,0-18.2-2.7c-1.5-3.5,3.7-9.9,12.3-12.7c11.3-3.7,17.7-1.1,19,3.6
	C219.2,222,215.7,226.9,204.8,229.5z"/>
<path class="st5" d="M204.6,224.4c-4.8,1.2-9.3,0.1-10-2.4c-0.7-2.6,2.7-5.7,7.6-6.9c4.8-1.2,9.3-0.1,10,2.4
	C212.9,220.1,209.5,223.1,204.6,224.4z"/>
<path class="st6" d="M131.7,217.1c-2.9,5.6-15.7,2.3-25.3-2.6s-11.9-10.7-9-16.3s12-7.4,22.2-2.2
	C129.1,200.9,134.5,211.5,131.7,217.1z"/>
<path class="st5" d="M124,207.1c-1.3,2.7-6.1,2.6-10.6,0.5s-7-6-5.7-8.7s5.9-3.2,10.4-1.1C122.5,199.8,125.2,204.4,124,207.1z"/>
</svg>
